<svg xmlns="http://www.w3.org/2000/svg" width="74.44144348486338" height="82.49549684229635" fill="none" style=""><rect id="backgroundrect" width="100%" height="100%" x="0" y="0" fill="none" stroke="none" class="selected" style=""/>
<g class="currentLayer" style=""><title>Layer 1</title><path d="M430.742 360V350.877H433.804L434.262 347.322H430.742V345.052C430.742 344.022 431.027 343.321 432.504 343.321L434.386 343.32V340.14C433.475 340.044 432.559 339.997 431.643 340C428.929 340 427.07 341.657 427.07 344.7V347.322H424V350.877H427.07V360L430.742 360Z" fill="black" id="svg_3"/><path d="M508 343.157C507.173 343.517 506.299 343.755 505.404 343.864C506.348 343.297 507.055 342.406 507.395 341.354C506.508 341.885 505.537 342.259 504.524 342.46C503.847 341.722 502.945 341.231 501.961 341.064C500.976 340.896 499.964 341.062 499.083 341.535C498.202 342.008 497.503 342.761 497.094 343.677C496.685 344.593 496.59 345.619 496.824 346.595C495.03 346.504 493.276 346.034 491.675 345.217C490.073 344.4 488.661 343.253 487.529 341.852C487.132 342.549 486.923 343.338 486.924 344.14C486.923 344.886 487.105 345.62 487.454 346.278C487.803 346.936 488.309 347.497 488.926 347.91C488.209 347.891 487.507 347.697 486.88 347.347V347.402C486.885 348.447 487.25 349.457 487.911 350.263C488.572 351.069 489.491 351.62 490.51 351.824C490.118 351.944 489.71 352.007 489.3 352.012C489.016 352.009 488.733 351.983 488.453 351.935C488.743 352.833 489.305 353.619 490.06 354.181C490.815 354.744 491.726 355.056 492.666 355.075C491.079 356.33 489.119 357.015 487.1 357.02C486.732 357.022 486.365 356.999 486 356.954C488.062 358.292 490.465 359.002 492.919 358.999C494.613 359.017 496.293 358.695 497.861 358.053C499.43 357.411 500.856 356.461 502.055 355.259C503.254 354.056 504.203 352.626 504.846 351.051C505.489 349.476 505.813 347.789 505.8 346.086C505.8 345.898 505.8 345.699 505.8 345.5C506.663 344.853 507.408 344.06 508 343.157V343.157Z" fill="black" id="svg_4"/><path d="M585.994 347.344C586.052 345.678 585.683 344.025 584.919 342.538C584.401 341.928 583.682 341.516 582.888 341.374C579.601 341.081 576.302 340.96 573.002 341.014C569.715 340.958 566.427 341.074 563.152 341.363C562.505 341.479 561.905 341.778 561.428 342.224C560.365 343.19 560.247 344.842 560.129 346.238C559.957 348.749 559.957 351.268 560.129 353.779C560.163 354.565 560.281 355.345 560.483 356.106C560.625 356.694 560.913 357.237 561.321 357.688C561.802 358.158 562.416 358.474 563.081 358.596C565.627 358.906 568.193 359.034 570.758 358.98C574.892 359.038 578.518 358.98 582.805 358.654C583.487 358.54 584.118 358.223 584.612 357.747C584.943 357.421 585.19 357.022 585.333 356.583C585.755 355.306 585.962 353.97 585.947 352.627C585.994 351.975 585.994 348.042 585.994 347.344ZM570.333 353.325V346.122L577.325 349.741C575.364 350.811 572.778 352.022 570.333 353.325Z" fill="black" id="svg_5"/><path d="M52.66153228759765,48.63929193115234 C52.52753228759765,48.78329193115235 52.40853228759765,48.941291931152335 52.30653228759766,49.11029193115235 C52.18953228759766,49.26029193115235 52.099532287597654,49.429291931152335 52.04053228759766,49.61029193115235 C51.95053228759765,49.786291931152334 51.89053228759765,49.975291931152356 51.86353228759765,50.17029193115235 C51.74353228759766,50.73429193115234 51.80553228759766,51.32129193115233 52.04053228759766,51.848291931152346 C52.17353228759765,52.213291931152355 52.38453228759765,52.54529193115235 52.66053228759766,52.820291931152354 C52.93653228759766,53.09529193115233 53.269532287597656,53.306291931152344 53.63653228759766,53.43829193115235 C53.986532287597655,53.60329193115234 54.37153228759766,53.68429193115233 54.75853228759766,53.67429193115234 C55.14253228759766,53.67829193115233 55.52453228759765,53.60829193115234 55.88153228759765,53.467291931152346 C56.23453228759766,53.29729193115233 56.56253228759766,53.07929193115234 56.85653228759766,52.820291931152354 C57.13053228759766,52.54529193115235 57.346532287597654,52.21829193115235 57.49453228759765,51.86029193115235 C57.641532287597656,51.50129193115234 57.715532287597654,51.11729193115235 57.71353228759766,50.729291931152346 C57.72353228759765,50.34329193115235 57.64253228759766,49.96029193115234 57.47653228759765,49.61029193115235 C57.32753228759766,49.25329193115235 57.117532287597655,48.925291931152344 56.85653228759766,48.63929193115234 C56.58053228759766,48.36629193115235 56.25353228759765,48.15029193115234 55.89353228759765,48.00329193115235 C55.53353228759765,47.85729193115233 55.147532287597656,47.78229193115234 54.75853228759766,47.78529193115236 C54.37253228759765,47.78929193115235 53.99153228759765,47.86929193115233 53.63653228759766,48.02029193115234 C53.27353228759766,48.16029193115236 52.94253228759766,48.37129193115234 52.66153228759765,48.63929193115234 zM40.48853228759765,60.88729193115233 C40.37153228759766,61.038291931152344 40.281532287597656,61.207291931152355 40.22253228759766,61.38829193115234 C40.111532287597655,61.560291931152335 40.031532287597656,61.74929193115236 39.986532287597655,61.947291931152336 C39.897532287597656,62.32529193115235 39.897532287597656,62.71829193115235 39.986532287597655,63.09629193115234 L40.16353228759766,63.62629193115234 L40.42953228759765,64.15629193115234 L40.78353228759765,64.59729193115234 C41.364532287597655,65.14929193115233 42.13753228759765,65.45629193115235 42.94053228759766,65.45129193115235 C43.32953228759766,65.45429193115234 43.71453228759766,65.37929193115235 44.07453228759766,65.23329193115234 C44.43453228759766,65.08629193115235 44.76253228759765,64.87029193115234 45.03853228759766,64.59729193115234 C45.29953228759766,64.31129193115234 45.50953228759765,63.98329193115234 45.65853228759765,63.62629193115234 C45.84253228759766,63.18029193115234 45.91353228759766,62.695291931152354 45.86553228759766,62.21629193115234 C45.81853228759766,61.73629193115235 45.65253228759765,61.27529193115234 45.38453228759765,60.87429193115236 C45.11553228759766,60.47229193115234 44.75253228759766,60.14329193115233 44.32653228759766,59.91429193115235 C43.900532287597656,59.68629193115234 43.42453228759766,59.56529193115233 42.94053228759766,59.562291931152345 C42.15853228759765,59.57329193115234 41.409532287597656,59.87829193115235 40.84253228759766,60.41629193115233 L40.48853228759765,60.88729193115233 zM52.66153228759765,60.41629193115233 C52.39253228759766,60.69629193115233 52.18153228759766,61.02729193115235 52.04053228759766,61.38829193115234 C51.79253228759765,61.92129193115235 51.71053228759766,62.51629193115235 51.80453228759765,63.09629193115234 L51.98153228759766,63.62629193115234 C52.04653228759766,63.81329193115235 52.135532287597655,63.99229193115235 52.24753228759765,64.15629193115234 C52.35653228759766,64.31029193115234 52.474532287597654,64.45829193115233 52.60153228759765,64.59729193115234 C52.882532287597655,64.86629193115235 53.21453228759766,65.07629193115235 53.57653228759766,65.21629193115234 C53.93053228759766,65.37229193115235 54.31353228759765,65.45229193115233 54.69953228759766,65.45229193115233 C55.08653228759766,65.45229193115233 55.468532287597654,65.37229193115235 55.82253228759765,65.21629193115234 C56.18053228759766,65.06729193115234 56.510532287597655,64.85829193115234 56.79753228759766,64.59729193115234 C57.08153228759765,64.32729193115233 57.30953228759766,64.00329193115235 57.46653228759766,63.64429193115234 C57.62453228759766,63.28529193115236 57.70753228759766,62.899291931152334 57.71353228759766,62.50729193115234 C57.72353228759765,62.12129193115234 57.64253228759766,61.737291931152356 57.47653228759765,61.38829193115234 C57.32753228759766,61.03129193115234 57.117532287597655,60.703291931152336 56.85653228759766,60.41629193115233 C56.56953228759765,60.15629193115234 56.239532287597655,59.947291931152336 55.88153228759765,59.798291931152335 C55.52753228759765,59.64229193115236 55.14553228759766,59.562291931152345 54.75853228759766,59.562291931152345 C54.37253228759765,59.562291931152345 53.989532287597655,59.64229193115236 53.63653228759766,59.798291931152335 C53.27353228759766,59.93829193115235 52.94253228759766,60.14829193115236 52.66153228759765,60.41629193115233 zM40.22253228759766,51.848291931152346 C40.36353228759765,52.209291931152336 40.57353228759766,52.54029193115235 40.84253228759766,52.820291931152354 C41.409532287597656,53.35829193115234 42.15853228759765,53.663291931152344 42.94053228759766,53.67429193115234 C43.42453228759766,53.67129193115235 43.900532287597656,53.550291931152344 44.32653228759766,53.322291931152336 C44.75253228759766,53.09329193115235 45.11553228759766,52.76429193115234 45.38453228759765,52.362291931152356 C45.65253228759765,51.961291931152346 45.81853228759766,51.50029193115233 45.86553228759766,51.02129193115235 C45.91353228759766,50.54129193115233 45.84253228759766,50.056291931152344 45.65853228759765,49.61029193115235 C45.50953228759765,49.25329193115235 45.29953228759766,48.925291931152344 45.03853228759766,48.63929193115234 C44.76253228759765,48.36629193115235 44.43453228759766,48.15029193115234 44.07453228759766,48.00329193115235 C43.71453228759766,47.85729193115233 43.32953228759766,47.78229193115234 42.94053228759766,47.78529193115236 C42.15853228759765,47.79629193115235 41.409532287597656,48.10129193115233 40.84253228759766,48.63929193115234 C40.43253228759765,49.05329193115233 40.15553228759765,49.578291931152336 40.04453228759766,50.15029193115234 C39.93453228759766,50.72129193115234 39.99653228759766,51.312291931152345 40.22253228759766,51.848291931152346 zM52.66153228759765,36.86129193115235 C52.400532287597656,37.14729193115235 52.19053228759766,37.47629193115233 52.04053228759766,37.832291931152355 C51.81453228759766,38.36929193115233 51.75253228759766,38.96029193115234 51.86253228759766,39.53129193115234 C51.97353228759765,40.10229193115234 52.251532287597655,40.62829193115235 52.66153228759765,41.042291931152334 C52.94253228759766,41.310291931152335 53.27353228759766,41.52029193115234 53.63653228759766,41.66029193115236 C53.989532287597655,41.816291931152335 54.37253228759765,41.89729193115235 54.75853228759766,41.89729193115235 C55.14553228759766,41.89729193115235 55.52753228759765,41.816291931152335 55.88153228759765,41.66029193115236 C56.239532287597655,41.51129193115236 56.56953228759765,41.302291931152354 56.85653228759766,41.042291931152334 C57.13053228759766,40.76729193115236 57.346532287597654,40.441291931152335 57.49453228759765,40.082291931152355 C57.641532287597656,39.723291931152346 57.715532287597654,39.33929193115233 57.71353228759766,38.951291931152355 C57.72353228759765,38.56529193115233 57.64253228759766,38.18229193115235 57.47653228759765,37.832291931152355 C57.32753228759766,37.47629193115233 57.117532287597655,37.14729193115235 56.85653228759766,36.86129193115235 C56.44153228759765,36.45229193115233 55.91353228759766,36.17629193115235 55.340532287597654,36.06529193115233 C54.76753228759766,35.955291931152345 54.17453228759766,36.01729193115236 53.63653228759766,36.24229193115235 C53.27353228759766,36.38329193115234 52.94253228759766,36.59329193115235 52.66153228759765,36.86129193115235 zM16.34973228759766,38.951291931152355 V62.50729193115234 C16.34973228759766,63.288291931152344 16.66103228759765,64.03729193115234 17.21503228759765,64.58929193115233 C17.769132287597657,65.14129193115235 18.52063228759765,65.45129193115235 19.304232287597657,65.45129193115235 H31.12243228759766 C31.906532287597656,65.45129193115235 32.65753228759766,65.14129193115235 33.21153228759766,64.58929193115233 C33.76553228759765,64.03729193115234 34.07653228759766,63.288291931152344 34.07653228759766,62.50729193115234 V38.951291931152355 C34.07653228759766,38.17029193115235 33.76553228759765,37.42229193115233 33.21153228759766,36.86929193115233 C32.65753228759766,36.31729193115234 31.906532287597656,36.00729193115234 31.12243228759766,36.00729193115234 H19.304232287597657 C18.52063228759765,36.00729193115234 17.769132287597657,36.31729193115234 17.21503228759765,36.86929193115233 C16.66103228759765,37.42229193115233 16.34973228759766,38.17029193115235 16.34973228759766,38.951291931152355 zM28.16793228759765,41.89629193115235 V59.562291931152345 H22.258832287597656 V41.89629193115235 H28.16793228759765 zM4.531532287597656,33.062291931152345 V68.39629193115235 C4.531532287597656,70.73929193115234 5.465332287597661,72.98529193115235 7.127632287597663,74.64229193115236 C8.78993228759765,76.29929193115234 11.044432287597658,77.22929193115235 13.395132287597662,77.22929193115235 H60.66753228759765 C63.01853228759765,77.22929193115235 65.27353228759765,76.29929193115234 66.93553228759765,74.64229193115236 C68.59753228759766,72.98529193115235 69.53153228759766,70.73929193115234 69.53153228759766,68.39629193115235 V33.062291931152345 C69.53153228759766,30.72029193115233 68.59753228759766,28.473291931152346 66.93553228759765,26.816291931152335 C65.27353228759765,25.160291931152358 63.01853228759765,24.229291931152346 60.66753228759765,24.229291931152346 H13.395132287597662 C11.044432287597658,24.229291931152346 8.78993228759765,25.160291931152358 7.127632287597663,26.816291931152335 C5.465332287597661,28.473291931152346 4.531532287597656,30.72029193115233 4.531532287597656,33.062291931152345 zM60.66753228759765,30.118291931152356 C61.451532287597644,30.118291931152356 62.20253228759765,30.42829193115233 62.757532287597655,30.98029193115235 C63.31153228759766,31.53329193115235 63.622532287597664,32.28229193115234 63.622532287597664,33.062291931152345 V68.39629193115235 C63.622532287597664,69.17729193115235 63.31153228759766,69.92629193115235 62.757532287597655,70.47829193115234 C62.20253228759765,71.03029193115233 61.451532287597644,71.34029193115234 60.66753228759765,71.34029193115234 H13.395132287597662 C12.611532287597655,71.34029193115234 11.860032287597662,71.03029193115233 11.30603228759766,70.47829193115234 C10.751932287597654,69.92629193115235 10.440632287597651,69.17729193115235 10.440632287597651,68.39629193115235 V33.062291931152345 C10.440632287597651,32.28229193115234 10.751932287597654,31.53329193115235 11.30603228759766,30.98029193115235 C11.860032287597662,30.42829193115233 12.611532287597655,30.118291931152356 13.395132287597662,30.118291931152356 H60.66753228759765 zM40.48853228759765,37.332291931152355 C40.37153228759766,37.48229193115233 40.281532287597656,37.65229193115235 40.22253228759766,37.832291931152355 C40.132532287597655,38.00829193115234 40.07253228759765,38.197291931152336 40.04553228759765,38.39229193115236 C39.95653228759765,38.77029193115234 39.95653228759765,39.163291931152344 40.04553228759765,39.54029193115235 L40.22253228759766,40.070291931152354 L40.48853228759765,40.600291931152356 L40.84253228759766,41.042291931152334 C41.409532287597656,41.580291931152345 42.15853228759765,41.88529193115235 42.94053228759766,41.89629193115235 C43.42453228759766,41.89329193115233 43.900532287597656,41.77329193115236 44.32653228759766,41.544291931152344 C44.75253228759766,41.31529193115233 45.11553228759766,40.98629193115235 45.38453228759765,40.58529193115234 C45.65253228759765,40.183291931152354 45.81853228759766,39.723291931152346 45.86553228759766,39.243291931152356 C45.91353228759766,38.76329193115234 45.84253228759766,38.27929193115236 45.65853228759765,37.832291931152355 C45.50953228759765,37.47629193115233 45.29953228759766,37.14729193115235 45.03853228759766,36.86129193115235 C44.76253228759765,36.588291931152355 44.43453228759766,36.37229193115235 44.07453228759766,36.22629193115233 C43.71453228759766,36.07929193115234 43.32953228759766,36.00529193115236 42.94053228759766,36.00729193115234 C42.15853228759765,36.01829193115233 41.409532287597656,36.32329193115234 40.84253228759766,36.86129193115235 L40.48853228759765,37.332291931152355 z" fill="#FF3343" id="svg_6" class=""/><path d="M16.62373228759766,7.292291931152349 C16.46653228759766,7.452291931152345 16.34243228759766,7.641291931152338 16.25853228759766,7.849291931152351 C16.17463228759766,8.056291931152344 16.132532287597655,8.278291931152339 16.134632287597654,8.502291931152342 L16.27303228759766,18.707291931152355 C16.27693228759766,18.931291931152344 16.32503228759765,19.152291931152348 16.414632287597655,19.357291931152332 C16.504132287597656,19.56329193115235 16.633332287597653,19.74829193115235 16.794732287597654,19.903291931152353 C16.95433228759765,20.06129193115234 17.143432287597662,20.185291931152335 17.35113228759765,20.26929193115234 C17.55873228759765,20.35329193115234 17.78093228759765,20.395291931152343 18.004932287597654,20.393291931152334 L24.81593228759766,20.300291931152344 L51.12153228759766,19.943291931152345 C51.34553228759765,19.94029193115233 51.56653228759765,19.891291931152352 51.77153228759765,19.802291931152354 C51.97653228759765,19.71229193115235 52.16253228759766,19.58329193115233 52.31753228759766,19.42229193115233 L57.35053228759766,14.250291931152347 C57.66553228759766,13.92729193115234 57.83953228759766,13.492291931152337 57.83353228759766,13.040291931152339 C57.82653228759766,12.589291931152346 57.641532287597656,12.158291931152348 57.31853228759766,11.844291931152341 L52.14653228759765,6.81129193115234 C51.98553228759765,6.635291931152338 51.78853228759766,6.496291931152342 51.56953228759765,6.401291931152343 C51.35053228759766,6.307291931152349 51.114532287597655,6.259291931152347 50.87553228759765,6.2622919311523475 L24.643432287597662,6.690291931152345 L17.87963228759766,6.710291931152341 C17.65323228759766,6.719291931152341 17.430132287597658,6.767291931152343 17.21953228759766,6.851291931152346 C17.11313228759765,6.937291931152345 17.01753228759766,7.035291931152344 16.93463228759765,7.144291931152338 C16.87363228759766,7.19529193115234 16.81803228759766,7.252291931152342 16.768432287597662,7.31429193115234 L16.62373228759766,7.292291931152349 zM50.272532287597656,9.737291931152342 L53.724532287597654,13.09629193115235 L50.36553228759766,16.548291931152335 L26.46653228759766,16.872291931152347 L26.37413228759766,10.06129193115234 L50.272532287597656,9.737291931152342 zM22.98073228759766,10.107291931152346 L23.073032287597655,16.91829193115234 L19.66733228759766,16.95229193115233 L19.57533228759766,10.165291931152339 L22.98073228759766,10.107291931152346 z" fill="#FF3343" id="svg_7" class=""/><path d="M483.562 167.6H471.312C470.5 167.6 469.721 167.921 469.147 168.493C468.573 169.065 468.25 169.841 468.25 170.65C468.25 171.459 468.573 172.235 469.147 172.807C469.721 173.379 470.5 173.7 471.312 173.7H483.562C484.375 173.7 485.154 173.379 485.728 172.807C486.302 172.235 486.625 171.459 486.625 170.65C486.625 169.841 486.302 169.065 485.728 168.493C485.154 167.921 484.375 167.6 483.562 167.6ZM495.812 137.1H492.199C491.567 135.32 490.398 133.779 488.852 132.686C487.305 131.594 485.458 131.005 483.562 131H477.438C475.542 131.005 473.695 131.594 472.148 132.686C470.602 133.779 469.433 135.32 468.801 137.1H465.188C462.751 137.1 460.414 138.064 458.691 139.78C456.968 141.496 456 143.823 456 146.25V182.85C456 185.277 456.968 187.604 458.691 189.32C460.414 191.036 462.751 192 465.188 192H495.812C498.249 192 500.586 191.036 502.309 189.32C504.032 187.604 505 185.277 505 182.85V146.25C505 143.823 504.032 141.496 502.309 139.78C500.586 138.064 498.249 137.1 495.812 137.1V137.1ZM474.375 140.15C474.375 139.341 474.698 138.565 475.272 137.993C475.846 137.421 476.625 137.1 477.438 137.1H483.562C484.375 137.1 485.154 137.421 485.728 137.993C486.302 138.565 486.625 139.341 486.625 140.15V143.2H474.375V140.15ZM498.875 182.85C498.875 183.659 498.552 184.435 497.978 185.007C497.404 185.579 496.625 185.9 495.812 185.9H465.188C464.375 185.9 463.596 185.579 463.022 185.007C462.448 184.435 462.125 183.659 462.125 182.85V146.25C462.125 145.441 462.448 144.665 463.022 144.093C463.596 143.521 464.375 143.2 465.188 143.2H468.25V146.25C468.25 147.059 468.573 147.835 469.147 148.407C469.721 148.979 470.5 149.3 471.312 149.3H489.688C490.5 149.3 491.279 148.979 491.853 148.407C492.427 147.835 492.75 147.059 492.75 146.25V143.2H495.812C496.625 143.2 497.404 143.521 497.978 144.093C498.552 144.665 498.875 145.441 498.875 146.25V182.85ZM489.688 155.4H471.312C470.5 155.4 469.721 155.721 469.147 156.293C468.573 156.865 468.25 157.641 468.25 158.45C468.25 159.259 468.573 160.035 469.147 160.607C469.721 161.179 470.5 161.5 471.312 161.5H489.688C490.5 161.5 491.279 161.179 491.853 160.607C492.427 160.035 492.75 159.259 492.75 158.45C492.75 157.641 492.427 156.865 491.853 156.293C491.279 155.721 490.5 155.4 489.688 155.4Z" fill="black" id="svg_8"/><path d="M882.247 143.516L870.446 131.61C870.25 131.415 870.017 131.261 869.761 131.156C869.504 131.051 869.23 130.998 868.953 131C868.401 131.002 867.872 131.221 867.481 131.61L837.612 161.374C837.22 161.768 837 162.301 837 162.857C837 163.412 837.22 163.946 837.612 164.34L849.517 176.245C849.714 176.44 849.947 176.594 850.203 176.699C850.459 176.804 850.734 176.857 851.011 176.855C851.562 176.853 852.091 176.634 852.483 176.245L858.436 170.292L876.294 152.434L882.247 146.481C882.639 146.087 882.859 145.554 882.859 144.998C882.859 144.443 882.639 143.91 882.247 143.516V143.516ZM874.801 147.975L873.307 146.481C872.913 146.09 872.38 145.87 871.824 145.87C871.269 145.87 870.735 146.09 870.341 146.481C870.144 146.677 869.988 146.91 869.881 147.166C869.774 147.422 869.719 147.697 869.719 147.975C869.719 148.253 869.774 148.527 869.881 148.784C869.988 149.04 870.144 149.273 870.341 149.468L871.835 150.962L868.848 153.928L864.389 149.468C863.986 149.124 863.469 148.944 862.939 148.964C862.41 148.985 861.908 149.204 861.533 149.579C861.158 149.953 860.939 150.455 860.918 150.985C860.898 151.514 861.078 152.032 861.423 152.434L865.882 156.893L862.895 159.88L861.423 158.387C861.027 157.991 860.489 157.768 859.929 157.768C859.369 157.768 858.832 157.991 858.436 158.387C858.04 158.783 857.817 159.32 857.817 159.88C857.817 160.441 858.04 160.978 858.436 161.374L859.929 162.846L856.963 165.833L852.483 161.374C852.089 160.982 851.556 160.762 851 160.762C850.444 160.762 849.911 160.982 849.517 161.374C849.125 161.768 848.906 162.301 848.906 162.857C848.906 163.412 849.125 163.946 849.517 164.34L853.976 168.799L851.011 171.786L842.071 162.846L868.848 136.069L877.788 145.009L874.801 147.975Z" fill="#FF3343" id="svg_9"/><path d="M860.138 192H898C898.558 192 899.093 191.778 899.487 191.384C899.882 190.989 900.104 190.454 900.104 189.897V152.034C900.104 151.477 899.882 150.942 899.487 150.547C899.093 150.153 898.558 149.931 898 149.931H885.379C884.822 149.931 884.286 150.153 883.892 150.547C883.498 150.942 883.276 151.477 883.276 152.034V175.172H860.138C859.58 175.172 859.045 175.394 858.651 175.788C858.256 176.183 858.035 176.718 858.035 177.276V189.897C858.035 190.454 858.256 190.989 858.651 191.384C859.045 191.778 859.58 192 860.138 192V192ZM862.241 179.379H866.448V181.483C866.448 182.041 866.67 182.576 867.064 182.97C867.459 183.365 867.994 183.586 868.552 183.586C869.11 183.586 869.645 183.365 870.039 182.97C870.434 182.576 870.655 182.041 870.655 181.483V179.379H874.862V181.483C874.862 182.041 875.084 182.576 875.478 182.97C875.873 183.365 876.408 183.586 876.966 183.586C877.523 183.586 878.058 183.365 878.453 182.97C878.847 182.576 879.069 182.041 879.069 181.483V179.379H883.276V181.483C883.276 182.041 883.498 182.576 883.892 182.97C884.286 183.365 884.822 183.586 885.379 183.586C885.937 183.586 886.472 183.365 886.867 182.97C887.261 182.576 887.483 182.041 887.483 181.483V179.379H889.586C890.144 179.379 890.679 179.158 891.074 178.763C891.468 178.369 891.69 177.834 891.69 177.276C891.69 176.718 891.468 176.183 891.074 175.788C890.679 175.394 890.144 175.172 889.586 175.172H887.483V170.966H889.586C890.144 170.966 890.679 170.744 891.074 170.349C891.468 169.955 891.69 169.42 891.69 168.862C891.69 168.304 891.468 167.769 891.074 167.375C890.679 166.98 890.144 166.759 889.586 166.759H887.483V162.552H889.586C890.144 162.552 890.679 162.33 891.074 161.936C891.468 161.541 891.69 161.006 891.69 160.448C891.69 159.89 891.468 159.355 891.074 158.961C890.679 158.566 890.144 158.345 889.586 158.345H887.483V154.138H895.897V187.793H862.241V179.379Z" fill="#FF3343" id="svg_10"/></g></svg>