<svg xmlns="http://www.w3.org/2000/svg" width="74" height="67.59459466425665" fill="none" style=""><rect id="backgroundrect" width="100%" height="100%" x="0" y="0" fill="none" stroke="none" class="" style=""/>










<g class="currentLayer" style=""><title>Layer 1</title><path d="M430.742 360V350.877H433.804L434.262 347.322H430.742V345.052C430.742 344.022 431.027 343.321 432.504 343.321L434.386 343.32V340.14C433.475 340.044 432.559 339.997 431.643 340C428.929 340 427.07 341.657 427.07 344.7V347.322H424V350.877H427.07V360L430.742 360Z" fill="black" id="svg_3"/><path d="M508 343.157C507.173 343.517 506.299 343.755 505.404 343.864C506.348 343.297 507.055 342.406 507.395 341.354C506.508 341.885 505.537 342.259 504.524 342.46C503.847 341.722 502.945 341.231 501.961 341.064C500.976 340.896 499.964 341.062 499.083 341.535C498.202 342.008 497.503 342.761 497.094 343.677C496.685 344.593 496.59 345.619 496.824 346.595C495.03 346.504 493.276 346.034 491.675 345.217C490.073 344.4 488.661 343.253 487.529 341.852C487.132 342.549 486.923 343.338 486.924 344.14C486.923 344.886 487.105 345.62 487.454 346.278C487.803 346.936 488.309 347.497 488.926 347.91C488.209 347.891 487.507 347.697 486.88 347.347V347.402C486.885 348.447 487.25 349.457 487.911 350.263C488.572 351.069 489.491 351.62 490.51 351.824C490.118 351.944 489.71 352.007 489.3 352.012C489.016 352.009 488.733 351.983 488.453 351.935C488.743 352.833 489.305 353.619 490.06 354.181C490.815 354.744 491.726 355.056 492.666 355.075C491.079 356.33 489.119 357.015 487.1 357.02C486.732 357.022 486.365 356.999 486 356.954C488.062 358.292 490.465 359.002 492.919 358.999C494.613 359.017 496.293 358.695 497.861 358.053C499.43 357.411 500.856 356.461 502.055 355.259C503.254 354.056 504.203 352.626 504.846 351.051C505.489 349.476 505.813 347.789 505.8 346.086C505.8 345.898 505.8 345.699 505.8 345.5C506.663 344.853 507.408 344.06 508 343.157V343.157Z" fill="black" id="svg_4"/><path d="M585.994 347.344C586.052 345.678 585.683 344.025 584.919 342.538C584.401 341.928 583.682 341.516 582.888 341.374C579.601 341.081 576.302 340.96 573.002 341.014C569.715 340.958 566.427 341.074 563.152 341.363C562.505 341.479 561.905 341.778 561.428 342.224C560.365 343.19 560.247 344.842 560.129 346.238C559.957 348.749 559.957 351.268 560.129 353.779C560.163 354.565 560.281 355.345 560.483 356.106C560.625 356.694 560.913 357.237 561.321 357.688C561.802 358.158 562.416 358.474 563.081 358.596C565.627 358.906 568.193 359.034 570.758 358.98C574.892 359.038 578.518 358.98 582.805 358.654C583.487 358.54 584.118 358.223 584.612 357.747C584.943 357.421 585.19 357.022 585.333 356.583C585.755 355.306 585.962 353.97 585.947 352.627C585.994 351.975 585.994 348.042 585.994 347.344ZM570.333 353.325V346.122L577.325 349.741C575.364 350.811 572.778 352.022 570.333 353.325Z" fill="black" id="svg_5"/><path d="M51.61638762664791,17.38988086318969 L39.815387626647976,5.483880863189711 C39.61938762664795,5.288880863189689 39.386387626648,5.134880863189693 39.13038762664792,5.029880863189703 C38.87338762664797,4.924880863189685 38.59938762664797,4.871880863189688 38.322387626647924,4.873880863189697 C37.7703876266479,4.875880863189707 37.24138762664791,5.094880863189701 36.850387626647944,5.483880863189711 L6.981387626647915,35.24788086318969 C6.5893876266479765,35.6418808631897 6.369387626647949,36.174880863189685 6.369387626647949,36.7308808631897 C6.369387626647949,37.2858808631897 6.5893876266479765,37.819880863189695 6.981387626647915,38.2138808631897 L18.886387626648002,50.1188808631897 C19.083387626648005,50.313880863189695 19.316387626647952,50.46788086318969 19.572387626647924,50.57288086318971 C19.828387626647896,50.6778808631897 20.103387626647987,50.7308808631897 20.380387626647916,50.72888086318969 C20.93138762664796,50.726880863189706 21.460387626647957,50.50788086318968 21.852387626647896,50.1188808631897 L27.805387626647985,44.1658808631897 L45.66338762664793,26.307880863189695 L51.61638762664791,20.354880863189692 C52.00838762664796,19.960880863189686 52.22838762664799,19.4278808631897 52.22838762664799,18.871880863189688 C52.22838762664799,18.31688086318971 52.00838762664796,17.783880863189694 51.61638762664791,17.38988086318969 V17.38988086318969 zM44.170387626647994,21.84888086318969 L42.676387626647966,20.354880863189692 C42.28238762664796,19.9638808631897 41.749387626647945,19.743880863189702 41.193387626647905,19.743880863189702 C40.638387626647955,19.743880863189702 40.10438762664796,19.9638808631897 39.71038762664796,20.354880863189692 C39.513387626647955,20.55088086318969 39.357387626648006,20.783880863189694 39.25038762664792,21.039880863189694 C39.14338762664795,21.295880863189694 39.088387626648,21.5708808631897 39.088387626648,21.84888086318969 C39.088387626648,22.126880863189683 39.14338762664795,22.400880863189684 39.25038762664792,22.65788086318969 C39.357387626648006,22.91388086318969 39.513387626647955,23.146880863189693 39.71038762664796,23.341880863189687 L41.204387626647986,24.835880863189686 L38.217387626647906,27.801880863189695 L33.75838762664796,23.341880863189687 C33.35538762664794,22.997880863189692 32.838387626648,22.817880863189686 32.308387626647914,22.837880863189696 C31.779387626647917,22.85888086318971 31.277387626647965,23.077880863189705 30.902387626647965,23.452880863189705 C30.527387626647965,23.8268808631897 30.308387626647914,24.32888086318971 30.287387626647956,24.85888086318971 C30.267387626647974,25.387880863189707 30.447387626647924,25.905880863189708 30.79238762664795,26.307880863189695 L35.2513876266479,30.766880863189698 L32.26438762664793,33.75388086318969 L30.79238762664795,32.2608808631897 C30.396387626647993,31.86488086318971 29.858387626647982,31.641880863189698 29.298387626647923,31.641880863189698 C28.738387626647977,31.641880863189698 28.201387626647943,31.86488086318971 27.805387626647985,32.2608808631897 C27.409387626647913,32.656880863189684 27.186387626647956,33.19388086318969 27.186387626647956,33.75388086318969 C27.186387626647956,34.3148808631897 27.409387626647913,34.851880863189706 27.805387626647985,35.24788086318969 L29.298387626647923,36.7198808631897 L26.332387626647915,39.706880863189696 L21.852387626647896,35.24788086318969 C21.458387626648005,34.8558808631897 20.92538762664799,34.6358808631897 20.36938762664795,34.6358808631897 C19.81338762664791,34.6358808631897 19.280387626647894,34.8558808631897 18.886387626648002,35.24788086318969 C18.49438762664795,35.6418808631897 18.2753876266479,36.174880863189685 18.2753876266479,36.7308808631897 C18.2753876266479,37.2858808631897 18.49438762664795,37.819880863189695 18.886387626648002,38.2138808631897 L23.34538762664795,42.672880863189704 L20.380387626647916,45.6598808631897 L11.440387626647976,36.7198808631897 L38.217387626647906,9.942880863189686 L47.15738762664796,18.882880863189683 L44.170387626647994,21.84888086318969 z" fill="#FF3343" id="svg_9" class=""/><path d="M29.507387626647983,65.8738808631897 H67.36938762664795 C67.92738762664794,65.8738808631897 68.46238762664791,65.65188086318969 68.85638762664792,65.25788086318968 C69.2513876266479,64.8628808631897 69.47338762664799,64.3278808631897 69.47338762664799,63.77088086318969 V25.90788086318969 C69.47338762664799,25.3508808631897 69.2513876266479,24.815880863189705 68.85638762664792,24.420880863189694 C68.46238762664791,24.02688086318969 67.92738762664794,23.80488086318971 67.36938762664795,23.80488086318971 H54.74838762664797 C54.19138762664795,23.80488086318971 53.655387626647894,24.02688086318969 53.261387626648,24.420880863189694 C52.867387626648,24.815880863189705 52.6453876266479,25.3508808631897 52.6453876266479,25.90788086318969 V49.045880863189694 H29.507387626647983 C28.94938762664799,49.045880863189694 28.41438762664791,49.2678808631897 28.020387626647903,49.66188086318971 C27.62538762664792,50.05688086318969 27.404387626647917,50.59188086318969 27.404387626647917,51.14988086318971 V63.77088086318969 C27.404387626647917,64.3278808631897 27.62538762664792,64.8628808631897 28.020387626647903,65.25788086318968 C28.41438762664791,65.65188086318969 28.94938762664799,65.8738808631897 29.507387626647983,65.8738808631897 V65.8738808631897 zM31.610387626647935,53.25288086318969 H35.81738762664793 V55.3568808631897 C35.81738762664793,55.914880863189694 36.03938762664791,56.44988086318969 36.433387626647914,56.843880863189696 C36.828387626647896,57.238880863189706 37.36338762664798,57.45988086318971 37.92138762664797,57.45988086318971 C38.47938762664796,57.45988086318971 39.01438762664793,57.238880863189706 39.40838762664794,56.843880863189696 C39.80338762664792,56.44988086318969 40.02438762664792,55.914880863189694 40.02438762664792,55.3568808631897 V53.25288086318969 H44.231387626647916 V55.3568808631897 C44.231387626647916,55.914880863189694 44.453387626647896,56.44988086318969 44.8473876266479,56.843880863189696 C45.242387626648,57.238880863189706 45.777387626647965,57.45988086318971 46.33538762664796,57.45988086318971 C46.892387626647974,57.45988086318971 47.42738762664794,57.238880863189706 47.822387626647924,56.843880863189696 C48.21638762664793,56.44988086318969 48.43838762664791,55.914880863189694 48.43838762664791,55.3568808631897 V53.25288086318969 H52.6453876266479 V55.3568808631897 C52.6453876266479,55.914880863189694 52.867387626648,56.44988086318969 53.261387626648,56.843880863189696 C53.655387626647894,57.238880863189706 54.19138762664795,57.45988086318971 54.74838762664797,57.45988086318971 C55.30638762664796,57.45988086318971 55.84138762664793,57.238880863189706 56.23638762664791,56.843880863189696 C56.63038762664792,56.44988086318969 56.8523876266479,55.914880863189694 56.8523876266479,55.3568808631897 V53.25288086318969 H58.95538762664796 C59.513387626647955,53.25288086318969 60.04838762664792,53.031880863189684 60.443387626647905,52.6368808631897 C60.83738762664791,52.2428808631897 61.059387626648004,51.7078808631897 61.059387626648004,51.14988086318971 C61.059387626648004,50.59188086318969 60.83738762664791,50.05688086318969 60.443387626647905,49.66188086318971 C60.04838762664792,49.2678808631897 59.513387626647955,49.045880863189694 58.95538762664796,49.045880863189694 H56.8523876266479 V44.839880863189705 H58.95538762664796 C59.513387626647955,44.839880863189705 60.04838762664792,44.6178808631897 60.443387626647905,44.22288086318969 C60.83738762664791,43.82888086318971 61.059387626648004,43.293880863189685 61.059387626648004,42.73588086318969 C61.059387626648004,42.1778808631897 60.83738762664791,41.6428808631897 60.443387626647905,41.2488808631897 C60.04838762664792,40.85388086318969 59.513387626647955,40.63288086318968 58.95538762664796,40.63288086318968 H56.8523876266479 V36.42588086318969 H58.95538762664796 C59.513387626647955,36.42588086318969 60.04838762664792,36.20388086318971 60.443387626647905,35.809880863189704 C60.83738762664791,35.414880863189694 61.059387626648004,34.8798808631897 61.059387626648004,34.321880863189705 C61.059387626648004,33.763880863189684 60.83738762664791,33.22888086318969 60.443387626647905,32.83488086318971 C60.04838762664792,32.4398808631897 59.513387626647955,32.218880863189696 58.95538762664796,32.218880863189696 H56.8523876266479 V28.011880863189702 H65.266387626648 V61.666880863189704 H31.610387626647935 V53.25288086318969 z" fill="#FF3343" id="svg_10" class=""/></g></svg>