<svg xmlns="http://www.w3.org/2000/svg" width="62.567567985540336" height="63.981982214188974" fill="none" style=""><rect id="backgroundrect" width="100%" height="100%" x="0" y="0" fill="none" stroke="none" class="selected" style=""/>










<g class="currentLayer" style=""><title>Layer 1</title><path d="M430.742 360V350.877H433.804L434.262 347.322H430.742V345.052C430.742 344.022 431.027 343.321 432.504 343.321L434.386 343.32V340.14C433.475 340.044 432.559 339.997 431.643 340C428.929 340 427.07 341.657 427.07 344.7V347.322H424V350.877H427.07V360L430.742 360Z" fill="black" id="svg_3"/><path d="M508 343.157C507.173 343.517 506.299 343.755 505.404 343.864C506.348 343.297 507.055 342.406 507.395 341.354C506.508 341.885 505.537 342.259 504.524 342.46C503.847 341.722 502.945 341.231 501.961 341.064C500.976 340.896 499.964 341.062 499.083 341.535C498.202 342.008 497.503 342.761 497.094 343.677C496.685 344.593 496.59 345.619 496.824 346.595C495.03 346.504 493.276 346.034 491.675 345.217C490.073 344.4 488.661 343.253 487.529 341.852C487.132 342.549 486.923 343.338 486.924 344.14C486.923 344.886 487.105 345.62 487.454 346.278C487.803 346.936 488.309 347.497 488.926 347.91C488.209 347.891 487.507 347.697 486.88 347.347V347.402C486.885 348.447 487.25 349.457 487.911 350.263C488.572 351.069 489.491 351.62 490.51 351.824C490.118 351.944 489.71 352.007 489.3 352.012C489.016 352.009 488.733 351.983 488.453 351.935C488.743 352.833 489.305 353.619 490.06 354.181C490.815 354.744 491.726 355.056 492.666 355.075C491.079 356.33 489.119 357.015 487.1 357.02C486.732 357.022 486.365 356.999 486 356.954C488.062 358.292 490.465 359.002 492.919 358.999C494.613 359.017 496.293 358.695 497.861 358.053C499.43 357.411 500.856 356.461 502.055 355.259C503.254 354.056 504.203 352.626 504.846 351.051C505.489 349.476 505.813 347.789 505.8 346.086C505.8 345.898 505.8 345.699 505.8 345.5C506.663 344.853 507.408 344.06 508 343.157V343.157Z" fill="black" id="svg_4"/><path d="M585.994 347.344C586.052 345.678 585.683 344.025 584.919 342.538C584.401 341.928 583.682 341.516 582.888 341.374C579.601 341.081 576.302 340.96 573.002 341.014C569.715 340.958 566.427 341.074 563.152 341.363C562.505 341.479 561.905 341.778 561.428 342.224C560.365 343.19 560.247 344.842 560.129 346.238C559.957 348.749 559.957 351.268 560.129 353.779C560.163 354.565 560.281 355.345 560.483 356.106C560.625 356.694 560.913 357.237 561.321 357.688C561.802 358.158 562.416 358.474 563.081 358.596C565.627 358.906 568.193 359.034 570.758 358.98C574.892 359.038 578.518 358.98 582.805 358.654C583.487 358.54 584.118 358.223 584.612 357.747C584.943 357.421 585.19 357.022 585.333 356.583C585.755 355.306 585.962 353.97 585.947 352.627C585.994 351.975 585.994 348.042 585.994 347.344ZM570.333 353.325V346.122L577.325 349.741C575.364 350.811 572.778 352.022 570.333 353.325Z" fill="black" id="svg_5"/><path d="M34.51921183085443,38.41081383228301 H22.043986173629772 C21.217056930065155,38.41081383228301 20.423734416842464,38.71285060489177 19.83918098604678,39.25105943334102 C19.2546275552511,39.78926826179027 18.925688952207565,40.51942569339276 18.925688952207565,41.28063363432885 C18.925688952207565,42.04184157526493 19.2546275552511,42.771999006867425 19.83918098604678,43.310207835316646 C20.423734416842464,43.848416663765896 21.217056930065155,44.150453436374654 22.043986173629772,44.150453436374654 H34.51921183085443 C35.34715946018696,44.150453436374654 36.14048197340965,43.848416663765896 36.72503540420533,43.310207835316646 C37.309588835001016,42.771999006867425 37.63852743804455,42.04184157526493 37.63852743804455,41.28063363432885 C37.63852743804455,40.51942569339276 37.309588835001016,39.78926826179027 36.72503540420533,39.25105943334102 C36.14048197340965,38.71285060489177 35.34715946018696,38.41081383228301 34.51921183085443,38.41081383228301 zM46.994437488079086,9.712615811824794 H43.31500970852376 C42.67138990318776,8.037770156860345 41.48089694046977,6.587805463433263 39.906472543239566,5.559374957323081 C38.33102976024151,4.531885375738138 36.450071246862436,3.9776808303594553 34.51921183085443,3.9729762077331543 H28.28261738801001 C26.351757972002005,3.9776808303594553 24.470799458622928,4.531885375738138 22.895356675624875,5.559374957323081 C21.320932278394675,6.587805463433263 20.130439315676682,8.037770156860345 19.486819510340677,9.712615811824794 H15.807391730785362 C13.325585614323593,9.712615811824794 10.94561807465552,10.619667054176325 9.19093939650056,12.234293539524078 C7.436260718345661,13.848920024871834 6.45046329498291,16.038451395154006 6.45046329498291,18.322075217962265 V52.75991284251212 C6.45046329498291,55.04353666532038 7.436260718345661,57.233068035602585 9.19093939650056,58.84769452095031 C10.94561807465552,60.46232100629807 13.325585614323593,61.3693722486496 15.807391730785362,61.3693722486496 H46.994437488079086 C49.47624360454085,61.3693722486496 51.85621114420892,60.46232100629807 53.61088982236388,58.84769452095031 C55.365568500518776,57.233068035602585 56.35136592388153,55.04353666532038 56.35136592388153,52.75991284251212 V18.322075217962265 C56.35136592388153,16.038451395154006 55.365568500518776,13.848920024871834 53.61088982236388,12.234293539524078 C51.85621114420892,10.619667054176325 49.47624360454085,9.712615811824794 46.994437488079086,9.712615811824794 V9.712615811824794 zM25.163301780819893,12.582435613870626 C25.163301780819893,11.82122767293454 25.492240383863425,11.091070241332051 26.076793814659112,10.552861412882802 C26.66134724545479,10.014652584433549 27.454669758677483,9.712615811824794 28.28261738801001,9.712615811824794 H34.51921183085443 C35.34715946018696,9.712615811824794 36.14048197340965,10.014652584433549 36.72503540420533,10.552861412882802 C37.309588835001016,11.091070241332051 37.63852743804455,11.82122767293454 37.63852743804455,12.582435613870626 V15.452255415916433 H25.163301780819893 V12.582435613870626 zM50.1137530952692,52.75991284251212 C50.1137530952692,53.52112078344821 49.78481449222567,54.2512782150507 49.200261061429984,54.78948704349995 C48.615707630634304,55.3276958719492 47.82238511741161,55.62973264455796 46.994437488079086,55.62973264455796 H15.807391730785362 C14.979444101452827,55.62973264455796 14.186121588230137,55.3276958719492 13.601568157434453,54.78948704349995 C13.017014726638774,54.2512782150507 12.688076123595238,53.52112078344821 12.688076123595238,52.75991284251212 V18.322075217962265 C12.688076123595238,17.56086727702618 13.017014726638774,16.83070984542369 13.601568157434453,16.292501016974438 C14.186121588230137,15.754292188525188 14.979444101452827,15.452255415916433 15.807391730785362,15.452255415916433 H18.925688952207565 V18.322075217962265 C18.925688952207565,19.08328315889835 19.2546275552511,19.81344059050084 19.83918098604678,20.351649418950092 C20.423734416842464,20.889858247399342 21.217056930065155,21.191895020008097 22.043986173629772,21.191895020008097 H40.757843045234665 C41.584772288799286,21.191895020008097 42.37809480202198,20.889858247399342 42.962648232817656,20.351649418950092 C43.54720166361334,19.81344059050084 43.876140266656876,19.08328315889835 43.876140266656876,18.322075217962265 V15.452255415916433 H46.994437488079086 C47.82238511741161,15.452255415916433 48.615707630634304,15.754292188525188 49.200261061429984,16.292501016974438 C49.78481449222567,16.83070984542369 50.1137530952692,17.56086727702618 50.1137530952692,18.322075217962265 V52.75991284251212 zM40.757843045234665,26.93153462409974 H22.043986173629772 C21.217056930065155,26.93153462409974 20.423734416842464,27.23357139670849 19.83918098604678,27.77178022515774 C19.2546275552511,28.309989053606998 18.925688952207565,29.040146485209455 18.925688952207565,29.801354426145544 C18.925688952207565,30.562562367081632 19.2546275552511,31.292719798684118 19.83918098604678,31.830928627133368 C20.423734416842464,32.36913745558262 21.217056930065155,32.671174228191376 22.043986173629772,32.671174228191376 H40.757843045234665 C41.584772288799286,32.671174228191376 42.37809480202198,32.36913745558262 42.962648232817656,31.830928627133368 C43.54720166361334,31.292719798684118 43.876140266656876,30.562562367081632 43.876140266656876,29.801354426145544 C43.876140266656876,29.040146485209455 43.54720166361334,28.309989053606998 42.962648232817656,27.77178022515774 C42.37809480202198,27.23357139670849 41.584772288799286,26.93153462409974 40.757843045234665,26.93153462409974 z" fill="black" id="svg_8" class=""/><path d="M882.247 143.516L870.446 131.61C870.25 131.415 870.017 131.261 869.761 131.156C869.504 131.051 869.23 130.998 868.953 131C868.401 131.002 867.872 131.221 867.481 131.61L837.612 161.374C837.22 161.768 837 162.301 837 162.857C837 163.412 837.22 163.946 837.612 164.34L849.517 176.245C849.714 176.44 849.947 176.594 850.203 176.699C850.459 176.804 850.734 176.857 851.011 176.855C851.562 176.853 852.091 176.634 852.483 176.245L858.436 170.292L876.294 152.434L882.247 146.481C882.639 146.087 882.859 145.554 882.859 144.998C882.859 144.443 882.639 143.91 882.247 143.516V143.516ZM874.801 147.975L873.307 146.481C872.913 146.09 872.38 145.87 871.824 145.87C871.269 145.87 870.735 146.09 870.341 146.481C870.144 146.677 869.988 146.91 869.881 147.166C869.774 147.422 869.719 147.697 869.719 147.975C869.719 148.253 869.774 148.527 869.881 148.784C869.988 149.04 870.144 149.273 870.341 149.468L871.835 150.962L868.848 153.928L864.389 149.468C863.986 149.124 863.469 148.944 862.939 148.964C862.41 148.985 861.908 149.204 861.533 149.579C861.158 149.953 860.939 150.455 860.918 150.985C860.898 151.514 861.078 152.032 861.423 152.434L865.882 156.893L862.895 159.88L861.423 158.387C861.027 157.991 860.489 157.768 859.929 157.768C859.369 157.768 858.832 157.991 858.436 158.387C858.04 158.783 857.817 159.32 857.817 159.88C857.817 160.441 858.04 160.978 858.436 161.374L859.929 162.846L856.963 165.833L852.483 161.374C852.089 160.982 851.556 160.762 851 160.762C850.444 160.762 849.911 160.982 849.517 161.374C849.125 161.768 848.906 162.301 848.906 162.857C848.906 163.412 849.125 163.946 849.517 164.34L853.976 168.799L851.011 171.786L842.071 162.846L868.848 136.069L877.788 145.009L874.801 147.975Z" fill="#FF3343" id="svg_9"/><path d="M860.138 192H898C898.558 192 899.093 191.778 899.487 191.384C899.882 190.989 900.104 190.454 900.104 189.897V152.034C900.104 151.477 899.882 150.942 899.487 150.547C899.093 150.153 898.558 149.931 898 149.931H885.379C884.822 149.931 884.286 150.153 883.892 150.547C883.498 150.942 883.276 151.477 883.276 152.034V175.172H860.138C859.58 175.172 859.045 175.394 858.651 175.788C858.256 176.183 858.035 176.718 858.035 177.276V189.897C858.035 190.454 858.256 190.989 858.651 191.384C859.045 191.778 859.58 192 860.138 192V192ZM862.241 179.379H866.448V181.483C866.448 182.041 866.67 182.576 867.064 182.97C867.459 183.365 867.994 183.586 868.552 183.586C869.11 183.586 869.645 183.365 870.039 182.97C870.434 182.576 870.655 182.041 870.655 181.483V179.379H874.862V181.483C874.862 182.041 875.084 182.576 875.478 182.97C875.873 183.365 876.408 183.586 876.966 183.586C877.523 183.586 878.058 183.365 878.453 182.97C878.847 182.576 879.069 182.041 879.069 181.483V179.379H883.276V181.483C883.276 182.041 883.498 182.576 883.892 182.97C884.286 183.365 884.822 183.586 885.379 183.586C885.937 183.586 886.472 183.365 886.867 182.97C887.261 182.576 887.483 182.041 887.483 181.483V179.379H889.586C890.144 179.379 890.679 179.158 891.074 178.763C891.468 178.369 891.69 177.834 891.69 177.276C891.69 176.718 891.468 176.183 891.074 175.788C890.679 175.394 890.144 175.172 889.586 175.172H887.483V170.966H889.586C890.144 170.966 890.679 170.744 891.074 170.349C891.468 169.955 891.69 169.42 891.69 168.862C891.69 168.304 891.468 167.769 891.074 167.375C890.679 166.98 890.144 166.759 889.586 166.759H887.483V162.552H889.586C890.144 162.552 890.679 162.33 891.074 161.936C891.468 161.541 891.69 161.006 891.69 160.448C891.69 159.89 891.468 159.355 891.074 158.961C890.679 158.566 890.144 158.345 889.586 158.345H887.483V154.138H895.897V187.793H862.241V179.379Z" fill="#FF3343" id="svg_10"/></g></svg>