<svg xmlns="http://www.w3.org/2000/svg" width="31.476190043685165" height="23.190476017473998" fill="none"><rect id="backgroundrect" width="100%" height="100%" x="0" y="0" fill="none" stroke="none" class="selected" style=""/>
<g class="currentLayer" style=""><title>Layer 1</title><path d="M61.038005249023456,116.93693923950195 V107.81393923950196 H64.10000524902341 L64.55800524902344,104.25893923950196 H61.038005249023456 V101.98893923950197 C61.038005249023456,100.95893923950194 61.323005249023424,100.25793923950198 62.80000524902346,100.25793923950198 L64.68200524902346,100.25693923950195 V97.07693923950194 C63.77100524902346,96.98093923950194 62.85500524902346,96.93393923950197 61.93900524902341,96.93693923950195 C59.22500524902341,96.93693923950195 57.36600524902343,98.59393923950194 57.36600524902343,101.63693923950194 V104.25893923950196 H54.29600524902344 V107.81393923950196 H57.36600524902343 V116.93693923950195 L61.038005249023456,116.93693923950195 z" fill="white" id="svg_3" class=""/><path d="M33.5855712890625,96.61905139160154 C32.7585712890625,96.97905139160156 31.884571289062478,97.21705139160156 30.989571289062496,97.32605139160154 C31.933571289062513,96.75905139160159 32.64057128906251,95.86805139160157 32.98057128906248,94.81605139160155 C32.09357128906248,95.34705139160155 31.122571289062478,95.72105139160158 30.1095712890625,95.92205139160154 C29.43257128906248,95.18405139160154 28.530571289062493,94.69305139160156 27.546571289062513,94.52605139160158 C26.5615712890625,94.35805139160158 25.5495712890625,94.52405139160157 24.668571289062527,94.99705139160159 C23.787571289062498,95.47005139160154 23.088571289062486,96.22305139160159 22.679571289062494,97.13905139160158 C22.270571289062502,98.05505139160158 22.175571289062475,99.08105139160159 22.409571289062512,100.05705139160159 C20.615571289062473,99.96605139160158 18.86157128906251,99.49605139160155 17.26057128906251,98.67905139160155 C15.658571289062479,97.86205139160154 14.246571289062501,96.71505139160155 13.114571289062496,95.31405139160154 C12.717571289062505,96.01105139160154 12.508571289062502,96.80005139160158 12.509571289062478,97.60205139160155 C12.508571289062502,98.34805139160159 12.690571289062518,99.08205139160157 13.039571289062508,99.74005139160158 C13.388571289062497,100.39805139160154 13.894571289062526,100.95905139160158 14.511571289062488,101.37205139160159 C13.794571289062503,101.35305139160158 13.092571289062505,101.15905139160157 12.465571289062495,100.80905139160154 V100.86405139160155 C12.470571289062491,101.90905139160157 12.8355712890625,102.91905139160156 13.496571289062501,103.72505139160154 C14.157571289062503,104.53105139160158 15.076571289062485,105.08205139160157 16.09557128906249,105.28605139160157 C15.703571289062495,105.40605139160158 15.29557128906248,105.46905139160157 14.885571289062511,105.47405139160156 C14.60157128906252,105.47105139160158 14.318571289062504,105.44505139160157 14.038571289062475,105.39705139160156 C14.328571289062495,106.29505139160159 14.890571289062507,107.08105139160159 15.645571289062502,107.64305139160155 C16.400571289062498,108.20605139160159 17.3115712890625,108.51805139160155 18.251571289062497,108.53705139160155 C16.664571289062508,109.79205139160155 14.704571289062528,110.47705139160155 12.685571289062523,110.48205139160154 C12.317571289062528,110.48405139160155 11.950571289062509,110.46105139160159 11.5855712890625,110.41605139160157 C13.647571289062512,111.75405139160154 16.050571289062475,112.46405139160157 18.504571289062483,112.46105139160159 C20.1985712890625,112.47905139160156 21.878571289062506,112.15705139160156 23.44657128906249,111.51505139160156 C25.015571289062507,110.87305139160156 26.441571289062495,109.92305139160158 27.640571289062507,108.72105139160158 C28.83957128906252,107.51805139160155 29.788571289062475,106.08805139160154 30.431571289062504,104.51305139160155 C31.074571289062476,102.93805139160156 31.398571289062488,101.25105139160155 31.38557128906251,99.54805139160158 C31.38557128906251,99.36005139160159 31.38557128906251,99.16105139160157 31.38557128906251,98.96205139160156 C32.24857128906251,98.31505139160157 32.993571289062515,97.52205139160156 33.5855712890625,96.61905139160154 V96.61905139160154 z" fill="white" id="svg_4" class=""/><path d="M29.10810721397403,9.06858410263061 C29.170356311798116,7.4025841026306125 28.774323258399953,5.7495841026305925 27.954352383613568,4.262584102630626 C27.398403544425918,3.6525841026306125 26.626729383468643,3.240584102630635 25.774560699462924,3.098584102630639 C22.246754069328308,2.8055841026306325 18.706068315506005,2.6845841026305948 15.164309301376292,2.7385841026306252 C11.636502671241793,2.682584102630642 8.10762278079989,2.7985841026306275 4.5926952743530745,3.087584102630615 C3.89829585552215,3.2035841026306002 3.25433967113492,3.5025841026306352 2.742394504547116,3.9485841026306048 C1.6015187978744603,4.914584102630613 1.4748740816115866,6.5665841026306 1.3482293653488355,7.962584102630615 C1.1636285924911434,10.473584102630639 1.1636285924911434,12.992584102630587 1.3482293653488355,15.503584102630612 C1.3847202157974365,16.289584102630613 1.5113649320601876,17.069584102630643 1.7281635141372114,17.83058410263061 C1.8805664777755737,18.418584102630632 2.1896654462814453,18.96158410263064 2.6275556516647622,19.412584102630603 C3.1437938594818338,19.88258410263063 3.802775688171444,20.198584102630605 4.516493792533893,20.32058410263062 C7.249014534950206,20.63058410263062 10.00300048351286,20.758584102630607 12.755913171768228,20.704584102630633 C17.1927712821961,20.762584102630626 21.08441315650943,20.704584102630633 25.68548009395594,20.378584102630615 C26.417443623542752,20.264584102630636 27.09467087745672,19.94758410263063 27.624861469268765,19.47158410263063 C27.98011063098906,19.145584102630608 28.245205926895203,18.746584102630607 28.398682150840727,18.307584102630642 C28.851598000526423,17.0305841026306 29.073762884140002,15.694584102630643 29.05766397953034,14.351584102630625 C29.10810721397403,13.699584102630638 29.10810721397403,9.766584102630588 29.10810721397403,9.06858410263061 zM12.299777541160552,15.049584102630604 V7.846584102630629 L19.80401360988622,11.4655841026306 C17.69935014724735,12.535584102630594 14.923898992538472,13.746584102630607 12.299777541160552,15.049584102630604 z" fill="white" id="svg_5" class=""/></g></svg>