<svg xmlns="http://www.w3.org/2000/svg" width="29.09523800873717" height="28.714285973788947" fill="none" style=""><rect id="backgroundrect" width="100%" height="100%" x="0" y="0" fill="none" stroke="none" class="selected" style=""/>
<g class="currentLayer" style=""><title>Layer 1</title><path d="M17.228480712890644,23.60360336303711 V14.480603363037119 H20.2904807128906 L20.748480712890625,10.925603363037112 H17.228480712890644 V8.65560336303713 C17.228480712890644,7.625603363037101 17.513480712890612,6.924603363037136 18.990480712890644,6.924603363037136 L20.87248071289065,6.9236033630371026 V3.7436033630370957 C19.961480712890648,3.647603363037092 19.04548071289065,3.6006033630371235 18.129480712890597,3.6036033630371094 C15.415480712890599,3.6036033630371094 13.556480712890618,5.260603363037092 13.556480712890618,8.303603363037098 V10.925603363037112 H10.486480712890625 V14.480603363037119 H13.556480712890618 V23.60360336303711 L17.228480712890644,23.60360336303711 z" fill="white" id="svg_3" class=""/><path d="M-97.84300935268402,73.76190441322325 C-98.67000935268402,74.12190441322326 -99.54400935268404,74.35990441322326 -100.43900935268402,74.46890441322324 C-99.49500935268401,73.90190441322329 -98.78800935268401,73.01090441322327 -98.44800935268404,71.95890441322325 C-99.33500935268404,72.48990441322326 -100.30600935268404,72.86390441322328 -101.31900935268402,73.06490441322325 C-101.99600935268404,72.32690441322325 -102.89800935268403,71.83590441322326 -103.88200935268401,71.66890441322329 C-104.86700935268402,71.50090441322328 -105.87900935268402,71.66690441322328 -106.760009352684,72.13990441322329 C-107.64100935268402,72.61290441322325 -108.34000935268404,73.36590441322329 -108.74900935268403,74.28190441322329 C-109.15800935268402,75.19790441322328 -109.25300935268405,76.2239044132233 -109.01900935268401,77.1999044132233 C-110.81300935268405,77.10890441322329 -112.56700935268401,76.63890441322326 -114.16800935268401,75.82190441322325 C-115.77000935268404,75.00490441322324 -117.18200935268402,73.85790441322325 -118.31400935268402,72.45690441322324 C-118.71100935268402,73.15390441322324 -118.92000935268402,73.94290441322329 -118.91900935268404,74.74490441322325 C-118.92000935268402,75.49090441322329 -118.738009352684,76.22490441322327 -118.38900935268401,76.88290441322329 C-118.04000935268402,77.54090441322325 -117.534009352684,78.10190441322328 -116.91700935268403,78.51490441322329 C-117.63400935268402,78.49590441322329 -118.33600935268402,78.30190441322327 -118.96300935268403,77.95190441322325 V78.00690441322325 C-118.95800935268403,79.05190441322327 -118.59300935268402,80.06190441322326 -117.93200935268402,80.86790441322324 C-117.27100935268402,81.67390441322328 -116.35200935268404,82.22490441322327 -115.33300935268403,82.42890441322328 C-115.72500935268403,82.54890441322328 -116.13300935268404,82.61190441322327 -116.54300935268401,82.61690441322327 C-116.827009352684,82.61390441322328 -117.11000935268402,82.58790441322327 -117.39000935268405,82.53990441322327 C-117.10000935268403,83.4379044132233 -116.53800935268401,84.2239044132233 -115.78300935268402,84.78590441322325 C-115.02800935268402,85.3489044132233 -114.11700935268402,85.66090441322325 -113.17700935268402,85.67990441322326 C-114.76400935268401,86.93490441322325 -116.72400935268399,87.61990441322325 -118.743009352684,87.62490441322325 C-119.111009352684,87.62690441322326 -119.47800935268401,87.60390441322329 -119.84300935268402,87.55890441322327 C-117.78100935268401,88.89690441322324 -115.37800935268405,89.60690441322328 -112.92400935268404,89.60390441322329 C-111.23000935268402,89.62190441322326 -109.55000935268401,89.29990441322326 -107.98200935268403,88.65790441322326 C-106.41300935268401,88.01590441322327 -104.98700935268403,87.06590441322328 -103.78800935268401,85.86390441322328 C-102.589009352684,84.66090441322325 -101.64000935268405,83.23090441322324 -100.99700935268402,81.65590441322325 C-100.35400935268405,80.08090441322327 -100.03000935268403,78.39390441322325 -100.04300935268401,76.69090441322328 C-100.04300935268401,76.50290441322329 -100.04300935268401,76.30390441322328 -100.04300935268401,76.10490441322327 C-99.18000935268401,75.45790441322328 -98.435009352684,74.66490441322327 -97.84300935268402,73.76190441322325 V73.76190441322325 z" fill="white" id="svg_4" class=""/><path d="M-79.46332680702207,40.49715771102905 C-79.40107770919798,38.83115771102905 -79.79711076259613,37.17815771102903 -80.61708163738253,35.691157711029064 C-81.17303047657018,35.08115771102905 -81.94470463752745,34.66915771102907 -82.79687332153317,34.527157711029076 C-86.32467995166779,34.23415771102907 -89.86536570549009,34.11315771102903 -93.4071247196198,34.16715771102906 C-96.9349313497543,34.11115771102908 -100.46381124019621,34.227157711029065 -103.97873874664302,34.51615771102905 C-104.67313816547394,34.63215771102904 -105.31709434986118,34.93115771102907 -105.82903951644897,35.37715771102904 C-106.96991522312163,36.34315771102905 -107.0965599393845,37.99515771102904 -107.22320465564727,39.39115771102905 C-107.40780542850496,41.902157711029076 -107.40780542850496,44.421157711029025 -107.22320465564727,46.93215771102905 C-107.18671380519865,47.71815771102905 -107.0600690889359,48.49815771102908 -106.84327050685889,49.25915771102905 C-106.69086754322052,49.84715771102907 -106.38176857471464,50.390157711029076 -105.94387836933133,50.84115771102904 C-105.42764016151426,51.31115771102907 -104.76865833282466,51.62715771102904 -104.0549402284622,51.749157711029056 C-101.32241948604589,52.05915771102906 -98.56843353748323,52.187157711029045 -95.81552084922787,52.13315771102907 C-91.37866273879999,52.191157711029064 -87.48702086448667,52.13315771102907 -82.88595392704016,51.80715771102905 C-82.15399039745334,51.69315771102907 -81.47676314353937,51.376157711029066 -80.94657255172733,50.90015771102907 C-80.59132339000703,50.574157711029045 -80.32622809410088,50.175157711029044 -80.17275187015537,49.73615771102908 C-79.71983602046967,48.459157711029036 -79.4976711368561,47.12315771102908 -79.51377004146576,45.78015771102906 C-79.46332680702207,45.128157711029075 -79.46332680702207,41.195157711029026 -79.46332680702207,40.49715771102905 zM-96.27165647983554,46.47815771102904 V39.27515771102907 L-88.76742041110987,42.89415771102904 C-90.87208387374875,43.96415771102903 -93.64753502845763,45.175157711029044 -96.27165647983554,46.47815771102904 z" fill="white" id="svg_5" class=""/></g></svg>