<svg xmlns="http://www.w3.org/2000/svg" width="31.476190043685165" height="23.190476017473998" fill="none" style=""><rect id="backgroundrect" width="100%" height="100%" x="0" y="0" fill="none" stroke="none" class="" style=""/>
<g class="currentLayer" style=""><title>Layer 1</title><path d="M61.038005249023456,116.93693923950195 V107.81393923950196 H64.10000524902341 L64.55800524902344,104.25893923950196 H61.038005249023456 V101.98893923950197 C61.038005249023456,100.95893923950194 61.323005249023424,100.25793923950198 62.80000524902346,100.25793923950198 L64.68200524902346,100.25693923950195 V97.07693923950194 C63.77100524902346,96.98093923950194 62.85500524902346,96.93393923950197 61.93900524902341,96.93693923950195 C59.22500524902341,96.93693923950195 57.36600524902343,98.59393923950194 57.36600524902343,101.63693923950194 V104.25893923950196 H54.29600524902344 V107.81393923950196 H57.36600524902343 V116.93693923950195 L61.038005249023456,116.93693923950195 z" fill="white" id="svg_3" class=""/><path d="M27.87128508090973,6.142855340957624 C27.04428508090973,6.5028553409576375 26.170285080909707,6.740855340957637 25.275285080909725,6.8498553409576175 C26.219285080909742,6.282855340957667 26.926285080909736,5.3918553409576475 27.26628508090971,4.339855340957627 C26.37928508090971,4.8708553409576325 25.408285080909707,5.244855340957656 24.39528508090973,5.445855340957621 C23.71828508090971,4.707855340957622 22.816285080909722,4.216855340957636 21.83228508090974,4.049855340957663 C20.847285080909728,3.8818553409576566 19.835285080909728,4.047855340957654 18.954285080909756,4.520855340957667 C18.073285080909727,4.993855340957623 17.374285080909715,5.746855340957666 16.965285080909723,6.6628553409576625 C16.55628508090973,7.578855340957659 16.461285080909704,8.60485534095767 16.69528508090974,9.580855340957669 C14.901285080909702,9.48985534095766 13.14728508090974,9.019855340957633 11.54628508090974,8.202855340957626 C9.944285080909708,7.385855340957619 8.53228508090973,6.2388553409576275 7.400285080909725,4.837855340957617 C7.003285080909734,5.53485534095762 6.794285080909731,6.323855340957664 6.795285080909707,7.125855340957628 C6.794285080909731,7.871855340957666 6.976285080909747,8.605855340957646 7.325285080909737,9.263855340957662 C7.674285080909726,9.92185534095762 8.180285080909755,10.482855340957656 8.797285080909717,10.895855340957667 C8.080285080909732,10.876855340957661 7.378285080909734,10.682855340957644 6.7512850809097245,10.332855340957622 V10.387855340957628 C6.75628508090972,11.432855340957644 7.121285080909729,12.442855340957635 7.78228508090973,13.248855340957618 C8.443285080909732,14.054855340957658 9.362285080909714,14.605855340957646 10.38128508090972,14.809855340957654 C9.989285080909724,14.929855340957658 9.581285080909709,14.992855340957647 9.17128508090974,14.997855340957642 C8.887285080909749,14.994855340957656 8.604285080909733,14.968855340957646 8.324285080909704,14.920855340957644 C8.614285080909724,15.818855340957668 9.176285080909736,16.60485534095767 9.931285080909731,17.166855340957625 C10.686285080909727,17.72985534095767 11.597285080909728,18.041855340957625 12.537285080909726,18.06085534095763 C10.950285080909737,19.315855340957626 8.990285080909757,20.000855340957628 6.971285080909752,20.005855340957623 C6.603285080909757,20.007855340957633 6.236285080909738,19.984855340957665 5.871285080909729,19.93985534095765 C7.933285080909741,21.277855340957615 10.336285080909704,21.987855340957655 12.790285080909712,21.984855340957665 C14.484285080909729,22.002855340957638 16.164285080909735,21.680855340957635 17.73228508090972,21.03885534095764 C19.301285080909736,20.396855340957643 20.727285080909724,19.446855340957654 21.926285080909736,18.244855340957656 C23.125285080909748,17.041855340957625 24.074285080909704,15.611855340957618 24.717285080909733,14.03685534095763 C25.360285080909705,12.46185534095764 25.684285080909717,10.774855340957629 25.67128508090974,9.071855340957654 C25.67128508090974,8.883855340957666 25.67128508090974,8.684855340957654 25.67128508090974,8.485855340957642 C26.53428508090974,7.83885534095765 27.279285080909744,7.045855340957644 27.87128508090973,6.142855340957624 V6.142855340957624 z" fill="white" id="svg_4" class=""/><path d="M-79.46332680702207,40.49715771102905 C-79.40107770919798,38.83115771102905 -79.79711076259613,37.17815771102903 -80.61708163738253,35.691157711029064 C-81.17303047657018,35.08115771102905 -81.94470463752745,34.66915771102907 -82.79687332153317,34.527157711029076 C-86.32467995166779,34.23415771102907 -89.86536570549009,34.11315771102903 -93.4071247196198,34.16715771102906 C-96.9349313497543,34.11115771102908 -100.46381124019621,34.227157711029065 -103.97873874664302,34.51615771102905 C-104.67313816547394,34.63215771102904 -105.31709434986118,34.93115771102907 -105.82903951644897,35.37715771102904 C-106.96991522312163,36.34315771102905 -107.0965599393845,37.99515771102904 -107.22320465564727,39.39115771102905 C-107.40780542850496,41.902157711029076 -107.40780542850496,44.421157711029025 -107.22320465564727,46.93215771102905 C-107.18671380519865,47.71815771102905 -107.0600690889359,48.49815771102908 -106.84327050685889,49.25915771102905 C-106.69086754322052,49.84715771102907 -106.38176857471464,50.390157711029076 -105.94387836933133,50.84115771102904 C-105.42764016151426,51.31115771102907 -104.76865833282466,51.62715771102904 -104.0549402284622,51.749157711029056 C-101.32241948604589,52.05915771102906 -98.56843353748323,52.187157711029045 -95.81552084922787,52.13315771102907 C-91.37866273879999,52.191157711029064 -87.48702086448667,52.13315771102907 -82.88595392704016,51.80715771102905 C-82.15399039745334,51.69315771102907 -81.47676314353937,51.376157711029066 -80.94657255172733,50.90015771102907 C-80.59132339000703,50.574157711029045 -80.32622809410088,50.175157711029044 -80.17275187015537,49.73615771102908 C-79.71983602046967,48.459157711029036 -79.4976711368561,47.12315771102908 -79.51377004146576,45.78015771102906 C-79.46332680702207,45.128157711029075 -79.46332680702207,41.195157711029026 -79.46332680702207,40.49715771102905 zM-96.27165647983554,46.47815771102904 V39.27515771102907 L-88.76742041110987,42.89415771102904 C-90.87208387374875,43.96415771102903 -93.64753502845763,45.175157711029044 -96.27165647983554,46.47815771102904 z" fill="white" id="svg_5" class=""/></g></svg>