<svg xmlns="http://www.w3.org/2000/svg" version="1.0" width="166" height="57" preserveAspectRatio="xMidYMid meet" style=""><rect id="backgroundrect" width="100%" height="100%" x="0" y="0" fill="none" stroke="none"/>
<metadata>
Created by potrace 1.16, written by Peter Selinger 2001-2019
</metadata>

<g class="currentLayer" style=""><title>Layer 1</title><g transform="translate(0,57) scale(0.10000000149011612,-0.10000000149011612) " fill="#c91b28" stroke="none" id="svg_1" class="" fill-opacity="1">
<path d="M0 523 l0 -49 68 -10 c210 -33 369 -199 398 -415 l7 -49 50 0 50 0 -5 85 c-4 74 -9 94 -47 171 -60 120 -145 206 -265 265 -80 39 -98 44 -173 48 l-83 3 0 -49z" id="svg_2" fill="#c91b28"/>
<path d="M385 548 c38 -28 122 -112 157 -158 l27 -35 1 96 c0 61 -4 99 -12 107 -8 8 -46 12 -107 12 l-96 -1 30 -21z" id="svg_3" fill="#c91b28"/>
<path d="M750 340 l0 -170 40 0 40 0 0 170 0 170 -40 0 -40 0 0 -170z" id="svg_4" fill="#c91b28"/>
<path d="M935 386 c-43 -19 -66 -49 -72 -94 -7 -52 18 -99 62 -118 100 -41 195 21 182 118 -6 46 -29 75 -74 94 -40 17 -59 17 -98 0z" id="svg_5" fill="#c91b28"/>
<path d="M1183 381 c-73 -46 -67 -167 11 -205 31 -15 44 -17 72 -8 26 8 34 7 34 -3 0 -33 -49 -42 -115 -21 -15 6 -24 0 -38 -24 l-18 -30 35 -15 c45 -19 119 -19 155 -1 42 22 51 54 51 192 l0 125 -47 -2 c-27 -1 -61 1 -78 5 -21 5 -39 1 -62 -13z" id="svg_6" fill="#c91b28"/>
<path d="M1485 386 c-64 -28 -89 -92 -62 -157 36 -86 179 -92 222 -9 34 65 7 138 -61 166 -41 17 -60 17 -99 0z" id="svg_7" fill="#c91b28"/>
<path d="M0 328 l0 -55 41 -7 c95 -15 186 -95 213 -187 9 -29 16 -59 16 -66 0 -9 16 -13 56 -13 l57 0 -6 56 c-16 159 -167 309 -324 322 l-53 4 0 -54z" id="svg_8" fill="#c91b28"/>
</g><path fill="#000000" stroke-dashoffset="" fill-rule="nonzero" marker-start="" marker-mid="" marker-end="" id="svg_10" d="M92.45035196275096,28.867530655196333 L93.52212199448032,25.52682133086579 L96.32803656660211,23.462124856985977 L99.79639118188707,23.462124856985977 L102.60232307922143,25.52682133086579 L103.67407540910305,28.867530655196333 L102.60232307922143,32.208239979526944 L99.79639118188707,34.27293607551212 L96.32803656660211,34.27293607551212 L93.52212199448032,32.208239979526944 L92.45035196275096,28.867530655196333 z" style="color: rgb(0, 0, 0);" class="" stroke="none" fill-opacity="1"/><path fill="#000000" stroke-dashoffset="" fill-rule="nonzero" marker-start="" marker-mid="" marker-end="" id="svg_12" d="M120.23864338994827,29.313478282478947 L121.22438496380883,26.251161684157516 L123.80507537738484,24.358523424249853 L126.99503333101543,24.358523424249853 L129.57573967915008,26.251161684157516 L130.56146497204853,29.313478282478947 L129.57573967915008,32.3757948808005 L126.99503333101543,34.26843279430471 L123.80507537738484,34.26843279430471 L121.22438496380883,32.3757948808005 L120.23864338994827,29.313478282478947 z" style="color: rgb(0, 0, 0);" class="" stroke="none" fill-opacity="1" opacity="1"/><path fill="#000000" stroke-dashoffset="" fill-rule="nonzero" marker-start="" marker-mid="" marker-end="" id="svg_9" d="M148.92331511529287,29.119780121653356 L149.8696266164181,25.62317269542469 L152.34708834063585,23.462124749439937 L155.40944665002868,23.462124749439937 L157.88692367141627,25.62317269542469 L158.83321954282425,29.119780121653356 L157.88692367141627,32.616387547882006 L155.40944665002868,34.77743509833719 L152.34708834063585,34.77743509833719 L149.8696266164181,32.616387547882006 L148.92331511529287,29.119780121653356 z" style="color: rgb(0, 0, 0);" class="" fill-opacity="1" stroke="none" opacity="1"/></g></svg>